<svg viewBox="340 10 680 680" fill="none" xmlns="http://www.w3.org/2000/svg">
  <!-- Sound wave bars (orange) -->
  <path fill="#F05A3B" d="m554.91,603.88h0c-24.98,0-45.24-20.25-45.24-45.24v-255.96s18.78,18.98,45.24,18.98,45.24-18.98,45.24-18.98v255.96c0,24.98-20.25,45.24-45.24,45.24Z"/>
  <path fill="#F05A3B" d="m674.35,661.82h0c-24.98,0-45.24-20.25-45.24-45.24v-255.96s18.78,18.98,45.24,18.98,45.24-18.98,45.24-18.98v255.96c0,24.98-20.25,45.24-45.24,45.24Z"/>
  <path fill="#F05A3B" d="m794.46,552.16h0c-24.98,0-45.24-20.25-45.24-45.24v-255.96s18.78,18.98,45.24,18.98,45.24-18.98,45.24-18.98v255.96c0,24.98-20.25,45.24-45.24,45.24Z"/>
  <!-- Headphone ear cups (yellow) -->
  <path fill="#FFC90E" d="m988.39,417.7c0,22.89-9.28,43.61-24.28,58.62-15.01,15.01-35.74,24.28-58.62,24.28h-12.2c-9.53,0-17.27-7.73-17.27-17.27v-131.28c0-9.53,7.73-17.27,17.27-17.27h12.2c3.74,0,7.41.24,11,.73,12.46,1.64,24.04,6.06,34.11,12.6,22.76,14.78,37.8,40.41,37.8,69.57Z"/>
  <path fill="#FFC90E" d="m472.69,352.06v131.28c0,9.53-7.73,17.27-17.27,17.27h-12.2c-45.79,0-82.91-37.12-82.91-82.91,0-22.89,9.27-43.61,24.28-58.62,4.11-4.11,8.63-7.78,13.51-10.95,10.07-6.55,21.65-10.96,34.11-12.6,3.59-.49,7.26-.73,11-.73h12.2c9.53,0,17.27,7.73,17.27,17.27Z"/>
  <!-- Headband (yellow) -->
  <path fill="#FFC90E" d="m916.54,190.3c-1.98,5.18-5.56,9.83-10.54,13.12-4.68,3.09-9.97,4.56-15.2,4.56-1.19,0-2.37-.08-3.56-.23-7.67-.99-14.9-5.2-19.49-12.17-8.63-13.04-18.6-25.26-29.64-36.3-43.74-43.73-101.88-67.82-163.73-67.82-78.03,0-150.33,38.92-193.4,104.12-4.6,6.97-11.83,11.18-19.51,12.17-6.33.83-13.01-.54-18.76-4.34-4.99-3.3-8.56-7.93-10.54-13.11-.02-.02,0-.02,0-.02-3.1-8.04-2.39-17.41,2.73-25.14,53.31-80.71,142.85-128.91,239.48-128.91,76.6,0,148.61,29.82,202.78,84,13.66,13.66,25.99,28.77,36.66,44.91,5.12,7.73,5.83,17.1,2.73,25.14Z"/>
</svg>
